<svg width="199" height="144" viewBox="0 0 199 144" fill="none" xmlns="http://www.w3.org/2000/svg">
<path fill-rule="evenodd" clip-rule="evenodd" d="M90.4531 20.1612C87.6643 20.4842 85.5769 21.4813 84.7528 22.8831L84.3664 23.5419L84.4201 44.2655C84.4634 60.6775 84.5171 65.151 84.6775 65.7662C85.2643 68.0057 86.4579 69.5106 88.2022 70.2118L89.1289 70.5839H123.643H158.158L159.08 70.2136C160.607 69.5996 161.792 68.3244 162.34 66.7056C162.724 65.5741 162.774 64.3165 162.812 54.8107C162.845 46.4978 162.859 46.142 163.184 44.9789C163.598 43.4964 163.59 43.4752 162.397 42.8886C159.766 41.5952 156.418 41.6388 155.148 42.9818C154.143 44.0443 154.101 44.3286 154.185 49.3711C154.445 64.8474 155.06 63.5661 147.332 63.6376C141.503 63.6922 141.696 63.7152 141.423 62.9358C140.919 61.5042 139.347 60.4127 133.73 57.5956C128.421 54.9331 127.347 54.3295 124.612 52.4676C117.758 47.8045 114.929 45.1886 114.143 42.7861L113.945 42.1837L113.201 42.2715C109.385 42.7225 105.993 47.5947 107.502 50.459C108.509 52.37 111.165 54.4653 117.878 58.6435C120.849 60.4927 122.248 61.283 124.461 62.3612C125.469 62.8522 126.292 63.3037 126.292 63.3649C126.292 63.8237 95.5683 63.8262 94.5558 63.3674C92.8844 62.6103 92.9582 63.6861 92.9526 40.1636L92.947 20L92.2063 20.0218C91.7991 20.0339 91.0103 20.097 90.4531 20.1612ZM175.142 23.031C172.408 23.5328 170.645 24.5122 169.908 25.9378C169.619 26.4966 169.61 27.1074 169.61 45.5304C169.61 65.4826 169.576 66.5995 168.914 68.4717C168.595 69.3748 168.591 69.3614 169.264 69.7857C172.107 71.5748 176.202 71.539 177.77 69.7118C178.852 68.4511 178.86 68.3584 178.663 59.1618C178.567 54.6743 178.489 44.6565 178.49 36.8999L178.492 22.797L177.362 22.814C176.741 22.8231 175.742 22.9207 175.142 23.031ZM70.6643 33.258V36.1035L71.1145 36.5338C71.738 37.1296 72.3914 37.2417 75.2706 37.2459C78.5741 37.2508 78.3395 37.4762 78.2739 34.3598C78.1943 30.5554 78.0223 30.4118 73.5532 30.4118H70.6643V33.258ZM154.911 30.5154C154.854 30.5724 154.807 31.7973 154.807 33.2374V35.8556L155.314 36.4054C155.984 37.1332 156.534 37.2417 159.586 37.2459C162.92 37.2508 162.598 37.5362 162.598 34.5834C162.598 30.6337 162.348 30.4118 157.897 30.4118C156.312 30.4118 154.968 30.4585 154.911 30.5154ZM70.316 83.4208L70.2748 124.665L69.9247 125.908C68.939 129.409 67.026 131.7 65.0553 131.741C64.4992 131.752 65.4721 132.597 66.8954 133.338C71.4568 135.715 75.7805 134.008 77.5027 129.149C78.3401 126.784 78.2994 129.007 78.2994 85.6936V45.5844L77.9785 44.9226C77.2784 43.4807 74.985 42.4874 71.8742 42.2782L70.3568 42.1758L70.316 83.4208ZM172.103 75.9489C167.928 76.4204 165.98 79.8181 167.837 83.388C168.235 84.1536 166.928 84.4368 165.286 83.9408C164.613 83.7376 164.221 85.3488 164.734 86.2144C165.264 87.1096 165.453 87.1344 171.615 87.1344H177.234L177.616 87.6944L177.996 88.2544L178.19 87.8928C178.466 87.3784 178.648 85.2856 178.454 84.8608C178.204 84.3136 177.651 84.2016 174.985 84.1512C171.167 84.0792 169.757 82.7112 170.771 80.0624C171.521 78.1035 175.255 77.7247 174.573 79.6763C174.343 80.3336 174.533 80.4464 175.87 80.4496C177.176 80.4528 177.557 80.0936 177.557 78.8617C177.557 76.6914 175.457 75.5701 172.103 75.9489ZM110.046 76.3483C109.983 76.4119 109.931 77.609 109.931 79.0096C109.931 82.9664 109.899 82.9384 114.442 82.9384H117.566V80.4368C117.566 76.4301 117.489 76.358 113.124 76.2834C111.495 76.2562 110.11 76.2853 110.046 76.3483ZM11.8422 86.3688C5.72026 86.8472 1.97441 89.228 0.366444 93.6616L0 94.672V103.064C0 110.657 0.0261334 111.526 0.271643 112.196C2.26793 117.638 8.0058 120.424 16.3611 120.01C25.0165 119.581 29.494 114.832 26.6135 109.135C26.0513 108.024 25.9232 108 25.5731 108.938C24.5121 111.787 21.0355 113.661 16.2833 113.946C10.484 114.293 7.86908 112.31 7.86908 107.563C7.86908 105.614 7.72141 105.707 9.89695 106.288C16.7986 108.13 24.6707 105.442 26.4002 100.655C28.4615 94.9472 25.9997 89.2528 20.6295 87.3088C19.0963 86.7544 14.3374 86.0352 13.4787 86.2288C13.4355 86.2384 12.6997 86.3016 11.8422 86.3688ZM47.9145 86.3736C47.2721 86.428 45.5889 86.6984 44.1753 86.9736C40.0862 87.7704 38.3506 87.696 34.4753 86.5568C34.217 86.4808 34.2025 87.264 34.2025 101.468V116.459L34.6381 117.106C35.5917 118.522 38.3621 119.61 41.0196 119.614L42.1493 119.614V106.424C42.1493 95.3376 42.1839 93.2048 42.3669 93.0536C42.8506 92.6528 45.762 92.2376 48.1485 92.2288C51.6689 92.216 53.0891 92.82 54.0316 94.7288L54.5372 95.7528L54.615 106.277L54.6928 116.802L55.3162 117.439C56.5104 118.658 59.2863 119.614 61.6369 119.614H62.5618V107.194C62.5618 92.7952 62.619 93.3848 60.963 90.768C59.0584 87.7584 53.5266 85.8952 47.9145 86.3736ZM97.4657 86.3016C95.2556 86.4592 93.7558 86.7304 91.3109 87.4128C86.5589 88.7392 84.9396 93.26 87.5994 97.7744C88.1621 98.7288 88.2952 98.7056 88.595 97.5968C89.5593 94.0304 92.7586 92.2488 98.2449 92.2216C102.522 92.2008 104.34 93.0872 104.81 95.4208C105.234 97.5272 103.586 98.6296 98.0525 99.9384C89.1393 102.049 86.1581 104.114 85.4663 108.662C84.5773 114.512 87.4639 118.123 94.349 119.775C95.448 120.038 100.511 120.054 101.595 119.796C105.158 118.95 109.104 118.746 111.242 119.296C111.92 119.471 112.568 119.614 112.683 119.614C112.999 119.614 112.979 96.3048 112.66 94.5224C111.685 89.0648 105.515 85.7264 97.4657 86.3016ZM122.475 87.124C121.352 87.3968 120.409 88.1968 119.714 89.4656C119.323 90.1808 118.738 92.6376 118.898 92.8968C118.951 92.9816 122.424 93.04 127.393 93.04C137.189 93.04 136.355 92.8096 134.826 95.0888C133.641 96.8568 131.074 99.524 127.85 102.337C121.218 108.124 119.1 110.827 118.358 114.455C118.144 115.5 118.141 117.959 118.353 118.721L118.515 119.303L130.156 119.297C142.718 119.289 142.392 119.31 143.516 118.454C144.797 117.481 146.177 113.842 145.439 113.386C145.321 113.313 141.195 113.25 136.27 113.246C131.337 113.242 127.255 113.178 127.179 113.102C126.749 112.672 129.179 110.022 134.005 105.654C138.83 101.289 140.917 99.032 142.467 96.508C143.123 95.4376 143.414 94.8432 143.907 93.56C143.977 93.3752 144.286 92.1168 144.592 90.7624C144.898 89.408 145.218 88.0856 145.303 87.8232C145.389 87.56 145.458 87.2632 145.458 87.1624C145.458 86.9552 123.323 86.9192 122.475 87.124ZM15.4793 92.2008C18.3434 92.8456 19.6919 95.1512 18.8532 97.968C18.1355 100.378 14.0439 101.331 8.89669 100.288L7.94686 100.095L7.9505 98.0832C7.95962 93.192 10.6268 91.108 15.4793 92.2008ZM105.063 108.379L105.023 113.462L103.964 113.814C100.438 114.987 96.1783 114.7 94.5302 113.179C92.2961 111.117 92.9999 107.874 95.9851 106.48C97.0905 105.964 97.5274 105.835 100.737 105.077C102.675 104.62 103.514 104.288 104.244 103.69C105.129 102.966 105.108 102.848 105.063 108.379Z" fill="#1BAC4B"/>
<path d="M162.478 143.5H84.1399C83.3115 143.5 82.6399 142.828 82.6399 142V138.337C82.6399 137.508 83.3115 136.837 84.1399 136.837H154.523C155.918 136.837 157.043 135.695 157.023 134.3L156.555 102.797C156.543 101.96 157.218 101.275 158.055 101.275H189.658C191.039 101.275 192.158 100.155 192.158 98.7746V8.11524C192.158 6.73453 191.039 5.61524 189.658 5.61524H51.1254C49.7447 5.61524 48.6254 6.73453 48.6254 8.11524V76.2865C48.6254 77.1149 47.9538 77.7865 47.1254 77.7865H44C43.1716 77.7865 42.5 77.1149 42.5 76.2865V2C42.5 1.17157 43.1716 0.5 44 0.5H197C197.828 0.5 198.5 1.17157 198.5 2V104.18C198.5 104.554 198.36 104.914 198.108 105.191L163.586 143.011C163.302 143.323 162.9 143.5 162.478 143.5Z" fill="#1BAC4B" stroke="#1BAC4B"/>
</svg>
