<svg width="28" height="28" viewBox="0 0 28 28" fill="none" xmlns="http://www.w3.org/2000/svg">
<path d="M7.14305 1.26004C8.82705 2.48804 10.1017 4.21338 11.1871 5.79871L12.0377 7.04938C12.3019 7.43546 12.4228 7.90175 12.3794 8.36755C12.3361 8.83334 12.1312 9.26932 11.8004 9.60004L9.99239 11.408L10.1831 11.8134C10.6497 12.7587 11.4551 14.12 12.6671 15.3334C13.504 16.1577 14.4474 16.8662 15.4724 17.44L15.9617 17.7027L16.3977 17.9187L16.5924 18.008L18.3991 16.2C18.7311 15.8685 19.169 15.664 19.6364 15.6223C20.1038 15.5806 20.5709 15.7044 20.9564 15.972L22.3084 16.9094C23.8444 17.9894 25.4484 19.22 26.6951 20.8174C26.9106 21.0946 27.0476 21.4246 27.092 21.7729C27.1363 22.1212 27.0862 22.475 26.9471 22.7974C25.8311 25.4014 23.0071 27.6187 20.0697 27.5094L19.6697 27.488L19.3591 27.4614L19.0151 27.4214L18.6404 27.3707L18.2337 27.3027L17.7991 27.2174L17.3377 27.1147L16.8497 26.9894L16.3364 26.8427L15.8004 26.6694C13.3391 25.8347 10.2151 24.1947 7.00972 20.9894C3.80572 17.7854 2.16572 14.6614 1.33105 12.2L1.15772 11.664L1.01105 11.1507L0.88572 10.6627L0.781719 10.2014C0.751681 10.0569 0.723678 9.91199 0.69772 9.76671L0.631053 9.36004L0.57772 8.98538L0.539053 8.64138L0.512386 8.33071L0.491053 7.93071C0.383053 5.00271 2.62439 2.15871 5.21639 1.04804C5.52836 0.913333 5.86999 0.862044 6.20776 0.899211C6.54553 0.936377 6.86784 1.06072 7.14305 1.26004ZM5.90705 3.67071C4.47772 4.41738 3.09372 6.12404 3.15639 7.83204L3.18305 8.26938L3.21239 8.54271L3.25105 8.84938L3.30439 9.18671L3.37239 9.55604L3.45905 9.95338L3.56572 10.38L3.69372 10.832L3.84572 11.3094C3.90172 11.472 3.96039 11.6387 4.02439 11.8094L4.22972 12.332L4.46439 12.8747C5.30172 14.7174 6.66705 16.8747 8.89772 19.104C11.1271 21.3334 13.2844 22.7 15.1271 23.5374L15.6697 23.772L16.1924 23.9774C16.3631 24.0414 16.5297 24.1 16.6924 24.156L17.1697 24.308L17.6231 24.436L18.0484 24.5427L18.4457 24.6294L18.8151 24.6974L19.1537 24.7507L19.4604 24.7907L19.7324 24.8174L20.1697 24.844C21.8551 24.9067 23.5751 23.5307 24.3191 22.12C23.3697 21.0067 22.1911 20.0934 20.8911 19.1734L19.8937 18.4787L19.6404 18.744L19.0991 19.3347L18.8124 19.636C18.0311 20.432 17.1191 21.108 16.0257 20.6667L15.7244 20.54L15.3564 20.3747L15.1511 20.2774L14.7004 20.052L14.2057 19.7854C12.9539 19.0887 11.8025 18.2253 10.7831 17.2187C9.77649 16.1993 8.91305 15.0479 8.21639 13.796L7.94972 13.3027L7.72305 12.8507L7.46172 12.2774L7.33372 11.9734C6.91905 10.948 7.48972 10.0827 8.21905 9.33338L8.51772 9.04004L9.26038 8.35604L9.52705 8.10271L8.89639 7.17871C7.95905 5.81871 7.04305 4.59204 5.90572 3.66938L5.90705 3.67071ZM17.9911 6.05338L18.1457 6.07071C19.1163 6.2419 20.0077 6.71597 20.6922 7.42495C21.3768 8.13393 21.8193 9.04143 21.9564 10.0174C22.0053 10.3549 21.9229 10.6984 21.7262 10.9771C21.5296 11.2558 21.2336 11.4486 20.8992 11.5157C20.5648 11.5828 20.2173 11.5192 19.9284 11.338C19.6394 11.1567 19.4309 10.8717 19.3457 10.5414L19.3151 10.388C19.2614 10.0055 19.0981 9.6467 18.845 9.35496C18.5918 9.06322 18.2596 8.85103 17.8884 8.74404L17.6817 8.69738C17.3469 8.63803 17.0474 8.45302 16.8445 8.18018C16.6416 7.90734 16.5506 7.56729 16.5901 7.22957C16.6296 6.89185 16.7967 6.58199 17.0571 6.36335C17.3175 6.14472 17.6516 6.03383 17.9911 6.05338ZM18.0004 2.00004C20.1221 2.00004 22.1569 2.8429 23.6572 4.34319C25.1575 5.84348 26.0004 7.87831 26.0004 10C26 10.3399 25.8699 10.6668 25.6366 10.9139C25.4033 11.161 25.0844 11.3097 24.7452 11.3296C24.4059 11.3495 24.0719 11.2391 23.8113 11.021C23.5507 10.8029 23.3832 10.4935 23.3431 10.156L23.3337 10C23.3342 8.64594 22.8194 7.34239 21.8937 6.35408C20.968 5.36577 19.701 4.76677 18.3497 4.67871L18.0004 4.66671C17.6468 4.66671 17.3076 4.52623 17.0576 4.27619C16.8075 4.02614 16.6671 3.687 16.6671 3.33338C16.6671 2.97975 16.8075 2.64062 17.0576 2.39057C17.3076 2.14052 17.6468 2.00004 18.0004 2.00004Z" fill="#1BAC4B"/>
</svg>
