<svg width="24" height="25" viewBox="0 0 24 25" fill="none" xmlns="http://www.w3.org/2000/svg">
<path d="M0.000488281 3.5C0.000488281 2.70435 0.316559 1.94129 0.879168 1.37868C1.44178 0.81607 2.20484 0.5 3.00049 0.5H15.6672C16.4628 0.5 17.2259 0.81607 17.7885 1.37868C18.3511 1.94129 18.6672 2.70435 18.6672 3.5V15.1667H24.0005V20.1667C24.0005 21.3159 23.5439 22.4181 22.7313 23.2308C21.9186 24.0435 20.8164 24.5 19.6672 24.5H4.33382C3.18455 24.5 2.08235 24.0435 1.26969 23.2308C0.457034 22.4181 0.000488281 21.3159 0.000488281 20.1667V3.5ZM18.6672 22.5H19.6672C20.286 22.5 20.8795 22.2542 21.3171 21.8166C21.7547 21.379 22.0005 20.7855 22.0005 20.1667V17.1667H18.6672V22.5ZM3.00049 2.5C2.73527 2.5 2.48092 2.60536 2.29338 2.79289C2.10584 2.98043 2.00049 3.23478 2.00049 3.5V20.1667C2.00049 21.4547 3.04582 22.5 4.33382 22.5H16.6672V3.5C16.6672 3.23478 16.5618 2.98043 16.3743 2.79289C16.1867 2.60536 15.9324 2.5 15.6672 2.5H3.00049ZM5.66716 5.83333C5.40194 5.83333 5.14758 5.93869 4.96005 6.12623C4.77251 6.31376 4.66716 6.56812 4.66716 6.83333C4.66716 7.09855 4.77251 7.3529 4.96005 7.54044C5.14758 7.72798 5.40194 7.83333 5.66716 7.83333H13.0005C13.2657 7.83333 13.5201 7.72798 13.7076 7.54044C13.8951 7.3529 14.0005 7.09855 14.0005 6.83333C14.0005 6.56812 13.8951 6.31376 13.7076 6.12623C13.5201 5.93869 13.2657 5.83333 13.0005 5.83333H5.66716ZM4.66716 12.1667C4.66716 11.9015 4.77251 11.6471 4.96005 11.4596C5.14758 11.272 5.40194 11.1667 5.66716 11.1667H13.0005C13.2657 11.1667 13.5201 11.272 13.7076 11.4596C13.8951 11.6471 14.0005 11.9015 14.0005 12.1667C14.0005 12.4319 13.8951 12.6862 13.7076 12.8738C13.5201 13.0613 13.2657 13.1667 13.0005 13.1667H5.66716C5.40194 13.1667 5.14758 13.0613 4.96005 12.8738C4.77251 12.6862 4.66716 12.4319 4.66716 12.1667ZM5.66716 16.5C5.40194 16.5 5.14758 16.6054 4.96005 16.7929C4.77251 16.9804 4.66716 17.2348 4.66716 17.5C4.66716 17.7652 4.77251 18.0196 4.96005 18.2071C5.14758 18.3946 5.40194 18.5 5.66716 18.5H9.66716C9.93237 18.5 10.1867 18.3946 10.3743 18.2071C10.5618 18.0196 10.6672 17.7652 10.6672 17.5C10.6672 17.2348 10.5618 16.9804 10.3743 16.7929C10.1867 16.6054 9.93237 16.5 9.66716 16.5H5.66716Z" fill="black"/>
</svg>
