<svg width="32" height="33" viewBox="0 0 32 33" fill="none" xmlns="http://www.w3.org/2000/svg">
<path d="M14.667 5.8334V13.8334C14.667 15.3067 11.9803 16.5001 8.66699 16.5001C5.35366 16.5001 2.66699 15.3067 2.66699 13.8334V5.8334" stroke="black" stroke-width="1.7" stroke-linecap="round" stroke-linejoin="round"/>
<path d="M14.667 9.83341C14.667 11.3067 11.9803 12.5001 8.66699 12.5001C5.35366 12.5001 2.66699 11.3067 2.66699 9.83341M21.3337 4.50008H25.3337C26.0409 4.50008 26.7192 4.78103 27.2193 5.28113C27.7194 5.78123 28.0003 6.4595 28.0003 7.16675V11.1667M10.667 28.5001H6.66699C5.95975 28.5001 5.28147 28.2191 4.78137 27.719C4.28128 27.2189 4.00033 26.5407 4.00033 25.8334V21.8334M14.667 5.83341C14.667 7.30675 11.9803 8.50008 8.66699 8.50008C5.35366 8.50008 2.66699 7.30675 2.66699 5.83341C2.66699 4.36008 5.35366 3.16675 8.66699 3.16675C11.9803 3.16675 14.667 4.36008 14.667 5.83341Z" stroke="black" stroke-width="1.7" stroke-linecap="round" stroke-linejoin="round"/>
<path d="M23.3333 23.1667C25.1743 23.1667 26.6667 21.6743 26.6667 19.8333C26.6667 17.9924 25.1743 16.5 23.3333 16.5C21.4924 16.5 20 17.9924 20 19.8333C20 21.6743 21.4924 23.1667 23.3333 23.1667Z" stroke="black" stroke-width="1.7" stroke-linecap="round" stroke-linejoin="round"/>
<path d="M29.334 29.8335H17.334C17.334 29.0456 17.4892 28.2653 17.7907 27.5374C18.0922 26.8094 18.5342 26.148 19.0913 25.5909C19.6485 25.0337 20.3099 24.5917 21.0379 24.2902C21.7658 23.9887 22.5461 23.8335 23.334 23.8335C24.1219 23.8335 24.9021 23.9887 25.6301 24.2902C26.358 24.5917 27.0195 25.0337 27.5766 25.5909C28.1338 26.148 28.5757 26.8094 28.8773 27.5374C29.1788 28.2653 29.334 29.0456 29.334 29.8335Z" stroke="black" stroke-width="1.7" stroke-linecap="round" stroke-linejoin="round"/>
</svg>
