<svg width="32" height="32" viewBox="0 0 32 32" fill="none" xmlns="http://www.w3.org/2000/svg">
<path d="M19 14C19 13.2044 18.6839 12.4413 18.1213 11.8787C17.5587 11.3161 16.7956 11 16 11C15.2044 11 14.4413 11.3161 13.8787 11.8787C13.3161 12.4413 13 13.2044 13 14C13 14.7956 13.3161 15.5587 13.8787 16.1213C14.4413 16.6839 15.2044 17 16 17C16.7956 17 17.5587 16.6839 18.1213 16.1213C18.6839 15.5587 19 14.7956 19 14ZM28 14C28 19.748 21.806 26.032 18.318 29.116C17.6802 29.6856 16.8551 30.0004 16 30.0004C15.1449 30.0004 14.3198 29.6856 13.682 29.116C10.194 26.032 4 19.748 4 14C4 12.4241 4.31039 10.8637 4.91345 9.4078C5.5165 7.95189 6.40042 6.62902 7.51472 5.51472C8.62902 4.40042 9.95189 3.5165 11.4078 2.91345C12.8637 2.31039 14.4241 2 16 2C17.5759 2 19.1363 2.31039 20.5922 2.91345C22.0481 3.5165 23.371 4.40042 24.4853 5.51472C25.5996 6.62902 26.4835 7.95189 27.0866 9.4078C27.6896 10.8637 28 12.4241 28 14ZM26 14C26 11.3478 24.9464 8.8043 23.0711 6.92893C21.1957 5.05357 18.6522 4 16 4C13.3478 4 10.8043 5.05357 8.92893 6.92893C7.05357 8.8043 6 11.3478 6 14C6 16.216 7.23 18.79 9.14 21.366C11.008 23.882 13.314 26.12 15.006 27.618C15.2782 27.8648 15.6326 28.0015 16 28.0015C16.3674 28.0015 16.7218 27.8648 16.994 27.618C18.686 26.12 20.994 23.884 22.86 21.366C24.77 18.79 26 16.216 26 14Z" fill="#1BAC4B"/>
</svg>
