<svg width="27" height="33" viewBox="0 0 27 33" fill="none" xmlns="http://www.w3.org/2000/svg">
<path d="M11.5799 26.4884L10.6893 27.3634L11.8143 28.4884H7.81429V26.4884H11.5799ZM13.8143 30.4884L15.8143 32.4884H2.81429C2.53304 32.4884 2.27262 32.4363 2.03304 32.3321C1.79346 32.2279 1.58512 32.0873 1.40804 31.9102C1.23096 31.7332 1.08512 31.5196 0.97054 31.2696C0.855957 31.0196 0.803874 30.7592 0.81429 30.4884V2.48836C0.81429 2.20711 0.866374 1.9467 0.97054 1.70711C1.07471 1.46753 1.21533 1.2592 1.39242 1.08211C1.5695 0.905029 1.78304 0.759196 2.03304 0.644613C2.28304 0.530029 2.54346 0.477946 2.81429 0.488363H18.8143C19.0955 0.488363 19.356 0.540446 19.5955 0.644613C19.8351 0.748779 20.0435 0.889404 20.2205 1.06649C20.3976 1.24357 20.5435 1.45711 20.658 1.70711C20.7726 1.95711 20.8247 2.21753 20.8143 2.48836V22.2384L18.8143 24.2384V2.48836H2.81429V30.4884H13.8143ZM26.5174 22.9571L17.8143 31.6602L13.6112 27.4571L15.0174 26.0352L17.8143 28.8321L25.1112 21.5352L26.5174 22.9571Z" fill="black"/>
</svg>
