<svg width="24" height="31" viewBox="0 0 24 31" fill="none" xmlns="http://www.w3.org/2000/svg">
<path d="M24 14.1667C24 21.5667 18.88 28.4867 12 30.1667C5.11999 28.4867 -7.62939e-06 21.5667 -7.62939e-06 14.1667V6.16668L12 0.833344L24 6.16668V14.1667ZM12 27.5C17 26.1667 21.3333 20.22 21.3333 14.46V7.90001L12 3.74001L2.66666 7.90001V14.46C2.66666 20.22 6.99999 26.1667 12 27.5ZM15.7333 14.1667V12.1667C15.7333 10.3 13.8667 8.83334 12 8.83334C10.1333 8.83334 8.26666 10.3 8.26666 12.1667V14.1667C7.46666 14.1667 6.66666 14.9667 6.66666 15.7667V20.4333C6.66666 21.3667 7.46666 22.1667 8.26666 22.1667H15.6C16.5333 22.1667 17.3333 21.3667 17.3333 20.5667V15.9C17.3333 14.9667 16.5333 14.1667 15.7333 14.1667ZM14 14.1667H9.99999V12.1667C9.99999 11.1 10.9333 10.4333 12 10.4333C13.0667 10.4333 14 11.1 14 12.1667V14.1667Z" fill="black"/>
</svg>
