<svg width="88" height="112" viewBox="0 0 88 112" fill="none" xmlns="http://www.w3.org/2000/svg">
<path d="M87.9973 19.5685C87.9973 19.5528 87.996 19.5358 87.9947 19.5202C87.9907 19.4605 87.9853 19.4008 87.9733 19.3411C87.9733 19.3397 87.9733 19.3382 87.9733 19.3382C87.9627 19.2785 87.9467 19.2203 87.928 19.162C87.9227 19.1464 87.9187 19.1321 87.9133 19.1179C87.8947 19.0639 87.8733 19.0099 87.848 18.9587C87.8467 18.9559 87.8453 18.9516 87.844 18.9488C87.8173 18.8948 87.7853 18.8436 87.752 18.7925C87.744 18.7797 87.7347 18.7669 87.7253 18.7541C87.6893 18.7043 87.652 18.656 87.6093 18.6105L70.5427 0.417863C70.5 0.372381 70.4547 0.332585 70.408 0.294209C70.396 0.28426 70.384 0.275733 70.372 0.265784C70.3253 0.230251 70.2773 0.19614 70.2267 0.167714C70.224 0.166292 70.22 0.164871 70.216 0.162028C70.168 0.135024 70.1173 0.112283 70.0667 0.0923848C70.0533 0.0866996 70.0387 0.0810143 70.0253 0.0767504C69.9707 0.0568522 69.916 0.0397971 69.86 0.0284267C69.8587 0.0284267 69.8587 0.0284267 69.8573 0.0284267C69.8027 0.0170563 69.7467 0.00994924 69.6893 0.00568534C69.6747 0.00426404 69.6587 0.00426451 69.644 0.00284321C69.6293 0.00284321 69.6147 0 69.5987 0H18.32C15.276 0 12.8 2.63936 12.8 5.88419V13.6459H5.52C2.476 13.6459 0 16.2853 0 19.5301V106.116C0 109.361 2.476 112 5.52 112H69.68C72.724 112 75.2 109.361 75.2 106.116V98.3555H82.48C85.524 98.3555 88 95.7161 88 92.4713V19.6154C88 19.5998 87.9987 19.5841 87.9973 19.5685ZM83.448 18.1941H73.7867C72.2133 18.1941 70.9333 16.8296 70.9333 15.1525V4.85517L83.448 18.1941ZM72.5333 106.116C72.5333 107.793 71.2533 109.157 69.68 109.157H5.52C3.94667 109.157 2.66667 107.793 2.66667 106.116V19.5301C2.66667 17.853 3.94667 16.4885 5.52 16.4885H12.8V92.4713C12.8 95.7161 15.276 98.3555 18.32 98.3555H72.5333V106.116ZM82.48 95.5129H18.32C16.7467 95.5129 15.4667 94.1485 15.4667 92.4713V5.88561C15.4667 4.20847 16.7467 2.84403 18.32 2.84403H68.2667V15.1525C68.2667 18.3973 70.7427 21.0367 73.7867 21.0367H85.3333V92.4713C85.3333 94.1485 84.0533 95.5129 82.48 95.5129Z" fill="#1BAC4B"/>
<path d="M44 43.209H26.9333V46.0516H44V43.209Z" fill="#1BAC4B"/>
<path d="M73.8667 43.209H48.2667V46.0516H73.8667V43.209Z" fill="#1BAC4B"/>
<path d="M63.2 61.4016H26.9333V64.2442H63.2V61.4016Z" fill="#1BAC4B"/>
<path d="M73.8667 61.4016H67.4667V64.2442H73.8667V61.4016Z" fill="#1BAC4B"/>
<path d="M50.4 79.5944H26.9333V82.437H50.4V79.5944Z" fill="#1BAC4B"/>
<path d="M73.8667 79.5944H54.6667V82.437H73.8667V79.5944Z" fill="#1BAC4B"/>
<path d="M54.7827 30.133C56.6307 30.133 58.1333 28.5312 58.1333 26.5612V17.2176C58.1333 15.2477 56.6307 13.6459 54.7827 13.6459H28.9507C27.1027 13.6459 25.6 15.2477 25.6 17.2176V26.5612C25.6 28.5312 27.1027 30.133 28.9507 30.133H54.7827ZM28.2667 26.5612V17.2176C28.2667 16.8154 28.5733 16.4885 28.9507 16.4885H54.7827C55.16 16.4885 55.4667 16.8154 55.4667 17.2176V26.5612C55.4667 26.9635 55.16 27.2904 54.7827 27.2904H28.9507C28.5733 27.2904 28.2667 26.9635 28.2667 26.5612Z" fill="#1BAC4B"/>
</svg>
