<svg width="110" height="112" viewBox="0 0 110 112" fill="none" xmlns="http://www.w3.org/2000/svg">
<path fill-rule="evenodd" clip-rule="evenodd" d="M85.5587 27.8532C85.3588 27.859 85.1597 27.8247 84.9733 27.7524C84.7868 27.6801 84.6169 27.5712 84.4734 27.4322C84.3299 27.2932 84.2159 27.1269 84.138 26.9431C84.0601 26.7594 84.02 26.5619 84.02 26.3625C84.02 26.163 84.0601 25.9655 84.138 25.7818C84.2159 25.598 84.3299 25.4317 84.4734 25.2927C84.6169 25.1537 84.7868 25.0448 84.9733 24.9725C85.1597 24.9002 85.3588 24.8659 85.5587 24.8717H87.7944V24.3096C87.8014 22.1469 88.6667 20.0749 90.2013 18.5467C91.7358 17.0184 93.8147 16.1583 95.9833 16.1544C96.3723 16.1656 96.7416 16.3276 97.0127 16.6059C97.2839 16.8843 97.4356 17.2571 97.4356 17.6451C97.4356 18.0332 97.2839 18.406 97.0127 18.6843C96.7416 18.9627 96.3723 19.1247 95.9833 19.1359C94.6072 19.1408 93.2888 19.6881 92.3155 20.6584C91.3423 21.6288 90.7932 22.9434 90.7879 24.3158V24.8779H94.568C94.957 24.8892 95.3262 25.0511 95.5974 25.3295C95.8685 25.6078 96.0202 25.9806 96.0202 26.3687C96.0202 26.7568 95.8685 27.1296 95.5974 27.4079C95.3262 27.6863 94.957 27.8483 94.568 27.8595H90.7879V30.2665H94.568C94.9643 30.2665 95.3444 30.4235 95.6246 30.7029C95.9048 30.9824 96.0622 31.3614 96.0622 31.7566C96.0622 32.1518 95.9048 32.5308 95.6246 32.8103C95.3444 33.0898 94.9643 33.2468 94.568 33.2468H90.7879V34.0662C90.7932 35.4386 91.3423 36.7532 92.3155 37.7235C93.2888 38.6939 94.6072 39.2412 95.9833 39.2461C96.3723 39.2573 96.7416 39.4193 97.0127 39.6977C97.2839 39.976 97.4356 40.3488 97.4356 40.7369C97.4356 41.1249 97.2839 41.4977 97.0127 41.7761C96.7416 42.0544 96.3723 42.2164 95.9833 42.2276C93.8145 42.2224 91.7359 41.3608 90.2023 39.8314C88.6687 38.3019 87.8047 36.2291 87.7995 34.0662V33.2468H85.5587C85.3625 33.2468 85.1682 33.2082 84.9869 33.1333C84.8056 33.0584 84.6409 32.9487 84.5021 32.8103C84.3634 32.6719 84.2533 32.5077 84.1782 32.3269C84.1031 32.1461 84.0645 31.9523 84.0645 31.7566C84.0645 31.5609 84.1031 31.3671 84.1782 31.1864C84.2533 31.0056 84.3634 30.8413 84.5021 30.7029C84.6409 30.5645 84.8056 30.4548 84.9869 30.3799C85.1682 30.305 85.3625 30.2665 85.5587 30.2665H87.7944V27.8532H85.5587ZM51.8788 81.6261C51.8901 81.2382 52.0525 80.87 52.3316 80.5996C52.6107 80.3291 52.9846 80.1779 53.3737 80.1779C53.7628 80.1779 54.1366 80.3291 54.4158 80.5996C54.6949 80.87 54.8573 81.2382 54.8686 81.6261V82.5005C55.7861 82.8647 56.5709 83.4986 57.1187 84.318C57.6666 85.1374 57.9516 86.1036 57.9359 87.0883C57.9359 87.4836 57.7785 87.8626 57.4983 88.1421C57.2181 88.4215 56.838 88.5785 56.4417 88.5785C56.0454 88.5785 55.6653 88.4215 55.3851 88.1421C55.1049 87.8626 54.9475 87.4836 54.9475 87.0883C54.9475 85.4583 53.3192 84.6089 52.3072 85.7144C51.976 86.0951 51.7976 86.5844 51.8062 87.0883C51.8062 88.5073 52.7806 88.7609 53.7538 89.0157C55.848 89.5628 57.9422 90.1086 57.9422 93.8184C57.958 94.8038 57.6728 95.7707 57.1244 96.5906C56.5761 97.4105 55.7906 98.0446 54.8723 98.4088V99.2831C54.8611 99.671 54.6986 100.039 54.4195 100.31C54.1404 100.58 53.7666 100.731 53.3774 100.731C52.9883 100.731 52.6145 100.58 52.3354 100.31C52.0563 100.039 51.8938 99.671 51.8826 99.2831V98.4088C50.9651 98.0444 50.1805 97.4105 49.6326 96.5911C49.0848 95.7717 48.7997 94.8056 48.8152 93.8209C48.8152 93.4257 48.9726 93.0467 49.2528 92.7672C49.5331 92.4877 49.9131 92.3307 50.3094 92.3307C50.7057 92.3307 51.0858 92.4877 51.366 92.7672C51.6462 93.0467 51.8037 93.4257 51.8037 93.8209C51.8037 95.4509 53.4319 96.3003 54.444 95.1949C54.7774 94.8151 54.9581 94.3257 54.9512 93.8209C54.9512 92.4019 53.978 92.1484 53.0036 91.8936C50.9094 91.3465 48.8152 90.8006 48.8152 87.0909C48.7995 86.1061 49.0846 85.1399 49.6324 84.3205C50.1803 83.5011 50.965 82.8672 51.8826 82.503V81.6286L51.8788 81.6261ZM61.4167 82.4343C59.8258 80.8478 57.7989 79.7674 55.5923 79.3297C53.3858 78.892 51.0986 79.1167 49.02 79.9753C46.9415 80.8339 45.1649 82.2879 43.915 84.1534C42.6651 86.019 41.9979 88.2122 41.9979 90.4559C41.9979 92.6995 42.6651 94.8928 43.915 96.7583C45.1649 98.6238 46.9415 100.078 49.02 100.936C51.0986 101.795 53.3858 102.02 55.5923 101.582C57.7989 101.144 59.8258 100.064 61.4167 98.4775C62.473 97.4241 63.3109 96.1735 63.8826 94.7971C64.4542 93.4208 64.7485 91.9456 64.7485 90.4559C64.7485 88.9661 64.4542 87.491 63.8826 86.1146C63.3109 84.7383 62.473 83.4877 61.4167 82.4343ZM53.3693 76.1314C50.5286 76.1324 47.752 76.9734 45.3906 78.548C43.0292 80.1226 41.1889 82.3601 40.1025 84.9776C39.0161 87.5951 38.7324 90.4752 39.2872 93.2535C39.842 96.0318 41.2104 98.5837 43.2194 100.587C45.2284 102.589 47.7878 103.953 50.5739 104.505C53.3601 105.058 56.2479 104.774 58.8722 103.689C61.4966 102.605 63.7396 100.769 65.3177 98.4136C66.8958 96.0581 67.7381 93.2888 67.7381 90.4559C67.7381 88.5743 67.3664 86.7112 66.6442 84.973C65.9221 83.2347 64.8636 81.6554 63.5292 80.3252C62.1949 78.995 60.6109 77.9399 58.8676 77.2204C57.1243 76.5008 55.256 76.1308 53.3693 76.1314ZM22.8081 81.6411C22.4118 81.6411 22.0318 81.4841 21.7516 81.2047C21.4713 80.9252 21.3139 80.5462 21.3139 80.151C21.3139 79.7557 21.4713 79.3767 21.7516 79.0973C22.0318 78.8178 22.4118 78.6608 22.8081 78.6608H34.5216C34.9179 78.6608 35.298 78.8178 35.5782 79.0973C35.8584 79.3767 36.0158 79.7557 36.0158 80.151C36.0158 80.5462 35.8584 80.9252 35.5782 81.2047C35.298 81.4841 34.9179 81.6411 34.5216 81.6411H22.8081ZM22.8081 87.0197C22.4118 87.0197 22.0318 86.8627 21.7516 86.5832C21.4713 86.3037 21.3139 85.9247 21.3139 85.5295C21.3139 85.1343 21.4713 84.7553 21.7516 84.4758C22.0318 84.1964 22.4118 84.0393 22.8081 84.0393H34.5216C34.9179 84.0393 35.298 84.1964 35.5782 84.4758C35.8584 84.7553 36.0158 85.1343 36.0158 85.5295C36.0158 85.9247 35.8584 86.3037 35.5782 86.5832C35.298 86.8627 34.9179 87.0197 34.5216 87.0197H22.8081ZM90.4848 71.8933H16.26V109.018H90.4873V71.8933H90.4848ZM84.0557 68.9117V64.4738H9.82591V101.599H13.2716V71.606C13.2726 70.892 13.5573 70.2074 14.0635 69.7024C14.5697 69.1974 15.256 68.9131 15.972 68.9117H84.0557ZM77.2158 61.496V56.4522H2.98848V93.5773H6.83743V64.1865C6.83942 63.4731 7.12464 62.7895 7.63071 62.2853C8.13677 61.7811 8.82249 61.4973 9.53784 61.496H77.2158ZM71.8075 97.8841C71.4112 97.8841 71.0311 97.7271 70.7509 97.4477C70.4706 97.1682 70.3132 96.7892 70.3132 96.394C70.3132 95.9988 70.4706 95.6198 70.7509 95.3403C71.0311 95.0608 71.4112 94.9038 71.8075 94.9038H83.5209C83.9172 94.9038 84.2973 95.0608 84.5775 95.3403C84.8577 95.6198 85.0151 95.9988 85.0151 96.394C85.0151 96.7892 84.8577 97.1682 84.5775 97.4477C84.2973 97.7271 83.9172 97.8841 83.5209 97.8841H71.8075ZM71.8075 103.263C71.4112 103.263 71.0311 103.106 70.7509 102.826C70.4706 102.547 70.3132 102.168 70.3132 101.773C70.3132 101.377 70.4706 100.998 70.7509 100.719C71.0311 100.439 71.4112 100.282 71.8075 100.282H83.5209C83.9172 100.282 84.2973 100.439 84.5775 100.719C84.8577 100.998 85.0151 101.377 85.0151 101.773C85.0151 102.168 84.8577 102.547 84.5775 102.826C84.2973 103.106 83.9172 103.263 83.5209 103.263H71.8075ZM32.0667 20.4212H53.6198V16.584C53.5944 13.0569 52.4001 9.63722 50.223 6.85745C45.9557 1.64379 39.2611 1.70374 35.0476 6.96112C33.6257 8.86752 32.6245 11.0525 32.1098 13.3724C31.5952 15.6923 31.5788 18.0945 32.0617 20.4212H32.0667ZM41.3002 0.0836888C37.8898 0.564905 34.8084 2.37119 32.728 5.10874C31.1578 7.16541 30.0134 9.51298 29.3614 12.0148C28.7094 14.5167 28.5629 17.1229 28.9304 19.6818C29.0384 20.5272 29.2003 21.365 29.4151 22.1899C29.4799 22.5308 29.662 22.8384 29.9301 23.0596C30.1981 23.2808 30.5351 23.4018 30.8831 23.4015H53.6198V53.4719H2.70166C1.98565 53.4729 1.29924 53.7569 0.792837 54.2616C0.286429 54.7664 0.00132524 55.4508 0 56.1649V93.8646C0.000994059 94.5789 0.285951 95.2636 0.792395 95.7687C1.29884 96.2737 1.98544 96.5579 2.70166 96.5589H6.83493V101.886C6.83592 102.6 7.12071 103.285 7.62688 103.79C8.13305 104.295 8.81933 104.579 9.53533 104.58H13.2691V109.306C13.27 110.02 13.5548 110.704 14.061 111.209C14.5672 111.714 15.2535 111.999 15.9695 112H90.7754C91.4914 111.999 92.1777 111.714 92.6839 111.209C93.19 110.704 93.4748 110.02 93.4758 109.306V90.8893H108.48C108.677 90.8905 108.872 90.8528 109.054 90.7784C109.236 90.704 109.402 90.5944 109.542 90.4559C109.682 90.3175 109.792 90.1528 109.868 89.9714C109.944 89.7901 109.983 89.5956 109.983 89.3991V16.6815C109.983 16.6565 109.983 16.6327 109.983 16.609C110.147 11.5552 109.141 7.73305 107.367 5.03629C106.429 3.57041 105.153 2.34962 103.646 1.47588C102.138 0.602137 100.443 0.100801 98.7013 0.0137401C98.6344 0.00477005 98.5671 0.000180049 98.4996 0H41.7924C41.6248 4.54734e-05 41.4583 0.0283404 41.3002 0.0836888ZM65.7691 22.7632C65.372 22.7632 64.9911 22.6059 64.7103 22.3259C64.4295 22.0458 64.2718 21.666 64.2718 21.27C64.2718 20.8739 64.4295 20.4941 64.7103 20.2141C64.9911 19.934 65.372 19.7767 65.7691 19.7767H77.8483C78.2373 19.7879 78.6065 19.9499 78.8777 20.2282C79.1488 20.5066 79.3005 20.8794 79.3005 21.2675C79.3005 21.6555 79.1488 22.0283 78.8777 22.3067C78.6065 22.585 78.2373 22.747 77.8483 22.7582L65.7691 22.7632ZM65.7691 36.0035C65.3801 35.9923 65.0109 35.8303 64.7397 35.5519C64.4686 35.2736 64.3169 34.9008 64.3169 34.5127C64.3169 34.1246 64.4686 33.7518 64.7397 33.4735C65.0109 33.1951 65.3801 33.0332 65.7691 33.0219H77.8483C78.2373 33.0332 78.6065 33.1951 78.8777 33.4735C79.1488 33.7518 79.3005 34.1246 79.3005 34.5127C79.3005 34.9008 79.1488 35.2736 78.8777 35.5519C78.6065 35.8303 78.2373 35.9923 77.8483 36.0035H65.7691ZM65.7691 49.2437C65.3728 49.2437 64.9928 49.0867 64.7125 48.8073C64.4323 48.5278 64.2749 48.1488 64.2749 47.7536C64.2749 47.3584 64.4323 46.9793 64.7125 46.6999C64.9928 46.4204 65.3728 46.2634 65.7691 46.2634H97.8333C98.2296 46.2634 98.6097 46.4204 98.8899 46.6999C99.1701 46.9793 99.3275 47.3584 99.3275 47.7536C99.3275 48.1488 99.1701 48.5278 98.8899 48.8073C98.6097 49.0867 98.2296 49.2437 97.8333 49.2437H65.7691ZM80.203 56.8631H97.8333C98.2223 56.8743 98.5915 57.0363 98.8627 57.3147C99.1338 57.593 99.2855 57.9658 99.2855 58.3539C99.2855 58.742 99.1338 59.1148 98.8627 59.3931C98.5915 59.6715 98.2223 59.8334 97.8333 59.8447H80.2043V61.496H84.3375C85.0538 61.4969 85.7404 61.7811 86.2468 62.2862C86.7533 62.7912 87.0382 63.476 87.0392 64.1902V68.9155H90.7729C91.4889 68.9168 92.1752 69.2011 92.6814 69.7062C93.1875 70.2112 93.4723 70.8957 93.4733 71.6098V87.909H106.988V16.6815C106.988 16.6247 106.991 16.568 106.998 16.5116C107.139 12.1223 106.318 8.88096 104.861 6.66634C104.171 5.58995 103.232 4.69386 102.124 4.05286C101.015 3.41186 99.7693 3.04454 98.4896 2.98155H50.57C51.2873 3.58547 51.9469 4.25452 52.5401 4.98008C55.1334 8.27333 56.5615 12.3295 56.602 16.5166C56.6081 16.5705 56.611 16.6247 56.6108 16.679V53.4719H77.5039C78.2197 53.4729 78.906 53.7569 79.4122 54.2617C79.9184 54.7665 80.2033 55.451 80.2043 56.1649L80.203 56.8631Z" fill="#1BAC4B"/>
</svg>
