<svg width="124" height="112" viewBox="0 0 124 112" fill="none" xmlns="http://www.w3.org/2000/svg">
<path fill-rule="evenodd" clip-rule="evenodd" d="M56.7143 112H6.65714C2.97143 112 0 109.07 0 105.497V6.50287C0 2.90257 3 0 6.65714 0H56.7143C60.4 0 63.3714 2.93048 63.3714 6.50287V31.5375C63.3714 32.2631 62.7714 32.8492 62.0286 32.8492C61.2857 32.8492 60.6857 32.2631 60.6857 31.5375V6.50287C60.6857 4.38176 58.9143 2.62347 56.7143 2.62347H6.65714C4.48571 2.62347 2.68571 4.35385 2.68571 6.50287V105.497C2.68571 107.618 4.45714 109.377 6.65714 109.377H56.7143C58.8857 109.377 60.6857 107.646 60.6857 105.497V70.4431C60.6857 69.7174 61.2857 69.1313 62.0286 69.1313C62.7714 69.1313 63.3714 69.7174 63.3714 70.4431V105.497C63.3714 109.097 60.4 112 56.7143 112Z" fill="#1BAC4B"/>
<path fill-rule="evenodd" clip-rule="evenodd" d="M42.9429 11.8893H20.4C18.6572 11.8893 17.2286 10.7171 16.8858 9.01468L15.4286 1.5629C15.2858 0.837257 15.7715 0.139525 16.5143 0.0278876C17.2572 -0.111659 17.9715 0.362799 18.0858 1.08844L19.5429 8.54022C19.6286 8.95886 19.9715 9.26587 20.3715 9.26587H42.9143C43.3429 9.26587 43.6858 8.98677 43.7715 8.54022L45.2286 1.08844C45.3715 0.362799 46.0858 -0.111659 46.8 0.0278876C47.5429 0.167434 48.0286 0.865166 47.8858 1.5629L46.4286 9.01468C46.1429 10.6892 44.6858 11.8893 42.9429 11.8893Z" fill="#1BAC4B"/>
<path fill-rule="evenodd" clip-rule="evenodd" d="M62.0286 92.7426H1.34286C0.6 92.7426 0 92.1565 0 91.4309C0 90.7052 0.6 90.1191 1.34286 90.1191H62.0286C62.7714 90.1191 63.3714 90.7052 63.3714 91.4309C63.3714 92.1565 62.7714 92.7426 62.0286 92.7426Z" fill="#1BAC4B"/>
<path fill-rule="evenodd" clip-rule="evenodd" d="M26.4857 98.7431C25.7714 98.7431 25.2 99.3013 25.2 99.999V102.092C25.2 102.79 25.7714 103.348 26.4857 103.348H36.9143C37.6286 103.348 38.2 102.79 38.2 102.092V99.999C38.2 99.3013 37.6286 98.7431 36.9143 98.7431H26.4857ZM36.9143 106.027H26.4857C24.2857 106.027 22.4857 104.269 22.4857 102.12V100.027C22.4857 97.8779 24.2857 96.1196 26.4857 96.1196H36.9143C39.1143 96.1196 40.9143 97.8779 40.9143 100.027V102.12C40.9143 104.269 39.1143 106.027 36.9143 106.027Z" fill="#1BAC4B"/>
<path fill-rule="evenodd" clip-rule="evenodd" d="M64.1714 60.1446H79.7143V52.8602H64.1714V60.1446ZM81.0571 62.7959H62.8286C62.0857 62.7959 61.4857 62.2098 61.4857 61.4842V51.5485C61.4857 50.8228 62.0857 50.2368 62.8286 50.2368H81.0571C81.8 50.2368 82.4 50.8228 82.4 51.5485V61.4842C82.4 62.2098 81.8 62.7959 81.0571 62.7959Z" fill="#1BAC4B"/>
<path fill-rule="evenodd" clip-rule="evenodd" d="M94.1143 57.8281H90.8C90.0572 57.8281 89.4572 57.242 89.4572 56.5163C89.4572 55.7907 90.0572 55.2046 90.8 55.2046H94.1143C94.8572 55.2046 95.4572 55.7907 95.4572 56.5163C95.4572 57.242 94.8572 57.8281 94.1143 57.8281Z" fill="#1BAC4B"/>
<path fill-rule="evenodd" clip-rule="evenodd" d="M103.543 57.8281H100.229C99.4857 57.8281 98.8857 57.242 98.8857 56.5163C98.8857 55.7907 99.4857 55.2046 100.229 55.2046H103.543C104.286 55.2046 104.886 55.7907 104.886 56.5163C104.886 57.242 104.286 57.8281 103.543 57.8281Z" fill="#1BAC4B"/>
<path fill-rule="evenodd" clip-rule="evenodd" d="M112.971 57.8281H109.657C108.914 57.8281 108.314 57.242 108.314 56.5163C108.314 55.7907 108.914 55.2046 109.657 55.2046H112.971C113.714 55.2046 114.314 55.7907 114.314 56.5163C114.314 57.242 113.714 57.8281 112.971 57.8281Z" fill="#1BAC4B"/>
<path fill-rule="evenodd" clip-rule="evenodd" d="M122.629 43.8734H53.1715C52.4286 43.8734 51.8286 43.2873 51.8286 42.5617C51.8286 41.836 52.4286 41.2499 53.1715 41.2499H122.629C123.371 41.2499 123.971 41.836 123.971 42.5617C123.971 43.2873 123.371 43.8734 122.629 43.8734Z" fill="#1BAC4B"/>
<path fill-rule="evenodd" clip-rule="evenodd" d="M56.7715 32.8772C55.5143 32.8772 54.5143 33.854 54.5143 35.082V66.9265C54.5143 68.1545 55.5143 69.1313 56.7715 69.1313H119.029C120.286 69.1313 121.286 68.1545 121.286 66.9265V35.082C121.286 33.854 120.286 32.8772 119.029 32.8772H56.7715ZM119.029 71.7548H56.7715C54.0286 71.7548 51.8 69.5779 51.8 66.8986V35.0541C51.8 32.3748 54.0286 30.1979 56.7715 30.1979H119.029C121.771 30.1979 124 32.3748 124 35.0541V66.8986C123.971 69.5779 121.743 71.7548 119.029 71.7548Z" fill="#1BAC4B"/>
<path fill-rule="evenodd" clip-rule="evenodd" d="M31.2 47.7249C28.9429 47.7249 26.9143 46.9993 25.5714 45.7154C25.0286 45.2131 25.0286 44.3758 25.5714 43.8455C26.0857 43.3152 26.9429 43.3152 27.4857 43.8455C28.2857 44.627 29.7143 45.1014 31.2 45.1014C33.7429 45.1014 35.5143 43.8176 35.5143 42.6454C35.5143 41.557 34.0857 40.5243 32.1714 40.2731C29.7143 39.9382 25.1714 39.2963 25.1714 35.1657C25.1714 32.319 28.2572 30.0862 32.2 30.0862C34.4572 30.0862 36.4857 30.8119 37.8286 32.0957C38.3714 32.5981 38.3714 33.4354 37.8286 33.9656C37.3143 34.4959 36.4572 34.4959 35.9143 33.9656C35.1143 33.1842 33.6857 32.7097 32.2 32.7097C29.6572 32.7097 27.8857 33.9935 27.8857 35.1657C27.8857 36.3379 28.6286 37.0915 32.5714 37.6497C35.9143 38.1241 38.2286 40.1615 38.2286 42.6454C38.2 45.4643 35.1429 47.7249 31.2 47.7249Z" fill="#1BAC4B"/>
<path fill-rule="evenodd" clip-rule="evenodd" d="M31.6858 49.7623C30.9429 49.7623 30.3429 49.1762 30.3429 48.4505V29.3327C30.3429 28.607 30.9429 28.0209 31.6858 28.0209C32.4286 28.0209 33.0286 28.607 33.0286 29.3327V48.4505C33.0572 49.1762 32.4286 49.7623 31.6858 49.7623Z" fill="#1BAC4B"/>
<path fill-rule="evenodd" clip-rule="evenodd" d="M31.6857 26.0673C24.4572 26.0673 18.5715 31.8166 18.5715 38.8776C18.5715 45.9387 24.4572 51.688 31.6857 51.688C38.9143 51.688 44.8 45.9387 44.8 38.8776C44.8 31.8166 38.9143 26.0673 31.6857 26.0673ZM31.6857 54.3394C22.9715 54.3394 15.8572 47.4179 15.8572 38.8776C15.8572 30.3653 22.9429 23.4159 31.6857 23.4159C40.4 23.4159 47.5143 30.3374 47.5143 38.8776C47.5143 47.4179 40.4 54.3394 31.6857 54.3394Z" fill="#1BAC4B"/>
<path fill-rule="evenodd" clip-rule="evenodd" d="M21.6 61.8191C20.0286 61.8191 18.7714 63.075 18.7714 64.5821V73.1224C18.7714 74.6574 20.0571 75.8854 21.6 75.8854H41.7714C43.3428 75.8854 44.6 74.6295 44.6 73.1224V64.5821C44.6 63.0471 43.3143 61.8191 41.7714 61.8191H21.6ZM41.7714 78.5647H21.6C18.5428 78.5647 16.0571 76.1366 16.0571 73.1503V64.61C16.0571 61.6237 18.5428 59.1956 21.6 59.1956H41.7714C44.8286 59.1956 47.3143 61.6237 47.3143 64.61V73.1503C47.3143 76.1087 44.8286 78.5647 41.7714 78.5647Z" fill="#1BAC4B"/>
<path fill-rule="evenodd" clip-rule="evenodd" d="M29.4 74.0713C29.0285 74.0713 28.6857 73.9317 28.4285 73.6805L25.0285 70.3593C24.5143 69.8291 24.5143 69.0197 25.0285 68.4894C25.5714 67.9871 26.4285 67.9871 26.9428 68.4894L29.3714 70.8617L36.3714 64.0239C36.8857 63.5216 37.7428 63.5216 38.2857 64.0239C38.8 64.5542 38.8 65.3915 38.2857 65.8939L30.3142 73.6805C30.1142 73.9317 29.7714 74.0713 29.4 74.0713Z" fill="#1BAC4B"/>
</svg>
