<svg width="106" height="112" viewBox="0 0 106 112" fill="none" xmlns="http://www.w3.org/2000/svg">
<path d="M103.259 61.4167L87.5069 55.2292L77.3968 45.2188V0.888889C77.3968 0.399306 77.0197 0 76.5556 0H0.84127C0.377093 0 0 0.399306 0 0.888889V111.111C0 111.601 0.377093 112 0.84127 112H76.5556C77.0197 112 77.3968 111.601 77.3968 111.111V87.401L78.8395 88.9601C80.9196 91.2066 83.694 92.4444 86.6508 92.4444C92.0443 92.4444 96.6918 88.1858 97.4608 82.5399L97.5651 81.7778H105.159C105.623 81.7778 106 81.3785 106 80.8889V65.5833C106 63.7344 104.898 62.0608 103.259 61.4167ZM75.7143 110.222H1.68254V1.77778H75.7143V43.7465L56.5902 39.4861L56.2944 39.4774L38.2063 42.3194C37.9902 42.3542 37.798 42.4722 37.6649 42.6528L33.728 48H24.3968C24.0723 48 23.7741 48.1997 23.6352 48.5104C23.4972 48.8212 23.5416 49.191 23.7486 49.4566L28.0749 54.9792L26.9272 55.3976C24.9103 56.1337 23.5556 58.1389 23.5556 60.3906V77.9549C23.5556 80.0625 25.1781 81.7778 27.1729 81.7778H30.2923L30.3966 82.5382L30.5503 83.3837C30.5938 83.5938 30.6472 83.7986 30.7384 84.1424L30.8189 84.4375C30.8846 84.6528 30.961 84.8594 31.0374 85.066L31.1771 85.4497C31.2749 85.6858 31.385 85.9167 31.4967 86.1476L31.6216 86.4167C31.7834 86.7292 31.9584 87.033 32.1457 87.3264L32.2772 87.5139C32.4283 87.7431 32.5836 87.967 32.7537 88.1875L33.0083 88.4931C33.1439 88.6562 33.2795 88.8194 33.4257 88.9757L33.7165 89.2691C33.8636 89.4149 34.0098 89.5625 34.1618 89.6979L34.4945 89.9792C34.6482 90.1059 34.8018 90.2309 34.962 90.349L35.3243 90.6042C35.487 90.7153 35.6521 90.8212 35.8254 90.9253C35.9503 91.0017 36.0768 91.0747 36.2058 91.1458C36.3792 91.2413 36.555 91.3281 36.7365 91.4149C36.868 91.4792 36.9994 91.5417 37.1317 91.5972C37.3174 91.6771 37.5063 91.7465 37.8235 91.8628L38.1011 91.9583C38.3024 92.0208 38.507 92.0729 38.7066 92.1233L39.1059 92.2222C39.3359 92.2691 39.5709 92.3038 39.9611 92.3594L40.1517 92.3872C40.505 92.4236 40.8607 92.4444 41.2222 92.4444C41.5837 92.4444 41.9394 92.4236 42.2985 92.3854L42.6378 92.3351C42.8735 92.3038 43.1085 92.2691 43.3385 92.2222L43.7312 92.125C43.9375 92.0729 44.142 92.0208 44.3433 91.9583L44.7483 91.816C44.9381 91.7465 45.1271 91.6771 45.3111 91.599C45.445 91.5417 45.5765 91.4792 45.7112 91.4132C45.8895 91.3281 46.0653 91.2413 46.2394 91.1441C46.3676 91.0747 46.4941 91.0017 46.6239 90.9219C46.7924 90.8212 46.9575 90.7153 47.1218 90.6024L47.4825 90.349C47.6427 90.2309 47.7963 90.1059 47.9778 89.9566L48.281 89.6997C48.4346 89.5625 48.5809 89.4149 48.8183 89.1806L49.0212 88.974C49.165 88.8194 49.3005 88.6562 49.4361 88.4931L49.6941 88.1823C49.8608 87.967 50.0161 87.7431 50.1673 87.5139L50.2987 87.3264C50.486 87.033 50.661 86.7292 50.8229 86.4167L50.9486 86.1458C51.0595 85.9167 51.1696 85.6858 51.2657 85.4531L51.4062 85.066C51.4834 84.8594 51.5598 84.6528 51.6247 84.441L51.743 84.0035C51.7972 83.7986 51.8506 83.5938 51.895 83.3802L52.0478 82.5382L52.1522 81.7778H75.7143V110.222ZM31.9683 80.8889C31.9683 75.4983 36.1196 71.1111 41.2222 71.1111C46.3249 71.1111 50.4762 75.4983 50.4762 80.8889C50.4762 86.2795 46.3249 90.6667 41.2222 90.6667C36.1196 90.6667 31.9683 86.2795 31.9683 80.8889ZM86.6508 90.6667C81.5481 90.6667 77.3968 86.2795 77.3968 80.8889C77.3968 75.4983 81.5481 71.1111 86.6508 71.1111C91.7535 71.1111 95.9048 75.4983 95.9048 80.8889C95.9048 86.2795 91.7535 90.6667 86.6508 90.6667ZM104.317 80H97.5807L97.4764 79.2396L97.3228 78.3941C97.2792 78.1858 97.2266 77.9809 97.1346 77.6337L97.0541 77.3403C96.9884 77.125 96.912 76.9184 96.8356 76.7118L96.6959 76.3281C96.5982 76.092 96.4881 75.8611 96.3763 75.6302L96.2515 75.3611C96.0896 75.0486 95.9146 74.7448 95.7273 74.4514L95.5926 74.2587C95.4414 74.0312 95.2878 73.809 95.1194 73.5903L94.8647 73.2847C94.7291 73.1215 94.5936 72.9583 94.4473 72.8021L94.1565 72.5087C94.0094 72.3628 93.8632 72.2153 93.7112 72.0799C93.6036 71.9844 93.4927 71.8924 93.376 71.7986C93.2224 71.6701 93.0663 71.5451 92.9135 71.4306L92.5454 71.1736C92.3836 71.0625 92.2201 70.9566 92.0476 70.8524C91.9227 70.776 91.7962 70.7031 91.6672 70.6319C91.4939 70.5365 91.318 70.4497 91.1365 70.3628C91.005 70.2986 90.8736 70.2361 90.7413 70.1806C90.5556 70.1007 90.3667 70.0312 90.0496 69.9149L89.7702 69.8194C89.5722 69.7569 89.3701 69.7049 89.0185 69.6163L88.7605 69.5538C88.533 69.5052 88.3005 69.474 87.9143 69.4184L87.7213 69.3906C87.368 69.3542 87.0123 69.3333 86.6508 69.3333C81.2474 69.3333 76.5933 73.592 75.826 79.2378L75.7217 80H52.1513L52.047 79.2378C51.2797 73.592 46.6256 69.3333 41.2222 69.3333C35.8189 69.3333 31.1648 73.592 30.3974 79.2378L30.2931 80H27.1729C26.1057 80 25.2381 79.0833 25.2381 77.9549V60.3906C25.2381 58.4601 26.7251 56.8889 28.5522 56.8889H29.9661C30.2906 56.8889 30.5889 56.6892 30.7277 56.3785C30.8657 56.0677 30.8214 55.6979 30.6143 55.4323L26.1845 49.7778H34.1388C34.4001 49.7778 34.6416 49.6528 34.8026 49.4358L38.7863 44.026L56.3897 41.2587L75.1606 45.441L86.4783 56.6476C86.5612 56.7292 86.6574 56.7917 86.7617 56.8333L102.673 63.0833C103.657 63.4688 104.317 64.474 104.317 65.5833V80Z" fill="#1BAC4B"/>
<path d="M73.1035 49.3542C72.9901 49.2379 72.8504 49.158 72.6976 49.1233L56.2156 45.3178L55.9174 45.3091L41.1788 47.7084C40.9602 47.7448 40.7664 47.8664 40.6341 48.0521L36.1755 54.3091C35.989 54.5712 35.9537 54.9185 36.0835 55.2153L37.3627 58.1494C37.4999 58.4636 37.7997 58.6667 38.1267 58.6667H80.1393C80.4843 58.6667 80.7899 58.448 80.9197 58.1112C81.0487 57.7744 80.9723 57.3924 80.7242 57.1389L73.1035 49.3542ZM55.5239 56.8889H38.6648L37.8219 54.9532L41.7728 49.4115L55.5239 47.1719V56.8889ZM57.2064 56.8889V47.3612L72.1045 50.8056L78.0591 56.8889H57.2064Z" fill="#1BAC4B"/>
<path d="M63.0953 64H59.7302C59.266 64 58.8889 64.3993 58.8889 64.8889C58.8889 65.3785 59.266 65.7778 59.7302 65.7778H63.0953C63.5594 65.7778 63.9365 65.3785 63.9365 64.8889C63.9365 64.3993 63.5594 64 63.0953 64Z" fill="#1BAC4B"/>
<path d="M10.9365 23.1111H21.0318C21.496 23.1111 21.8731 22.7118 21.8731 22.2222V11.5555C21.8731 11.0659 21.496 10.6666 21.0318 10.6666H10.9365C10.4724 10.6666 10.0953 11.0659 10.0953 11.5555V22.2222C10.0953 22.7118 10.4724 23.1111 10.9365 23.1111ZM11.7778 12.4444H20.1905V21.3333H11.7778V12.4444Z" fill="#1BAC4B"/>
<path d="M29.4445 23.1112H61.4128C61.8769 23.1112 62.254 22.7118 62.254 22.2223C62.254 21.7327 61.8769 21.3334 61.4128 21.3334H29.4445C28.9803 21.3334 28.6032 21.7327 28.6032 22.2223C28.6032 22.7118 28.9803 23.1112 29.4445 23.1112Z" fill="#1BAC4B"/>
<path d="M10.9365 33.7778H46.2699C46.7341 33.7778 47.1111 33.3785 47.1111 32.8889C47.1111 32.3993 46.7341 32 46.2699 32H10.9365C10.4724 32 10.0953 32.3993 10.0953 32.8889C10.0953 33.3785 10.4724 33.7778 10.9365 33.7778Z" fill="#1BAC4B"/>
<path d="M10.9365 42.6667H31.127C31.5912 42.6667 31.9683 42.2674 31.9683 41.7778C31.9683 41.2882 31.5912 40.8889 31.127 40.8889H10.9365C10.4724 40.8889 10.0953 41.2882 10.0953 41.7778C10.0953 42.2674 10.4724 42.6667 10.9365 42.6667Z" fill="#1BAC4B"/>
<path d="M46.2699 99.5555H10.9365C10.4724 99.5555 10.0953 99.9548 10.0953 100.444C10.0953 100.934 10.4724 101.333 10.9365 101.333H46.2699C46.7341 101.333 47.1111 100.934 47.1111 100.444C47.1111 99.9548 46.7341 99.5555 46.2699 99.5555Z" fill="#1BAC4B"/>
<path d="M10.9365 92.4444H27.7619C28.2261 92.4444 28.6032 92.0451 28.6032 91.5555C28.6032 91.0659 28.2261 90.6666 27.7619 90.6666H10.9365C10.4724 90.6666 10.0953 91.0659 10.0953 91.5555C10.0953 92.0451 10.4724 92.4444 10.9365 92.4444Z" fill="#1BAC4B"/>
<path d="M10.9365 62.2222H17.6667C18.1309 62.2222 18.508 61.8229 18.508 61.3333C18.508 60.8438 18.1309 60.4445 17.6667 60.4445H10.9365C10.4724 60.4445 10.0953 60.8438 10.0953 61.3333C10.0953 61.8229 10.4724 62.2222 10.9365 62.2222Z" fill="#1BAC4B"/>
<path d="M10.9365 72.8889H17.6667C18.1309 72.8889 18.508 72.4896 18.508 72C18.508 71.5104 18.1309 71.1111 17.6667 71.1111H10.9365C10.4724 71.1111 10.0953 71.5104 10.0953 72C10.0953 72.4896 10.4724 72.8889 10.9365 72.8889Z" fill="#1BAC4B"/>
<path d="M10.9365 79.9999H17.6667C18.1309 79.9999 18.508 79.6006 18.508 79.1111C18.508 78.6215 18.1309 78.2222 17.6667 78.2222H10.9365C10.4724 78.2222 10.0953 78.6215 10.0953 79.1111C10.0953 79.6006 10.4724 79.9999 10.9365 79.9999Z" fill="#1BAC4B"/>
<path d="M10.9365 53.3333H19.3492C19.8134 53.3333 20.1905 52.934 20.1905 52.4444C20.1905 51.9548 19.8134 51.5555 19.3492 51.5555H10.9365C10.4724 51.5555 10.0953 51.9548 10.0953 52.4444C10.0953 52.934 10.4724 53.3333 10.9365 53.3333Z" fill="#1BAC4B"/>
</svg>
