<svg width="88" height="112" viewBox="0 0 88 112" fill="none" xmlns="http://www.w3.org/2000/svg">
<path d="M85.3119 60.5117L79.2435 57.6406L87.9491 17.97C88.1532 17.0403 87.7255 16.0747 86.9944 15.8149L64.6246 7.85973V1.75C64.6246 0.782715 64.0089 0 63.2496 0H1.37499C0.615658 0 0 0.782715 0 1.75V110.25C0 111.217 0.615658 112 1.37499 112H63.2496C64.0089 112 64.6246 111.217 64.6246 110.25V107.803L66.6454 108.522C66.7676 108.565 66.8925 108.587 67.0174 108.587C67.2517 108.587 67.484 108.51 67.6915 108.362C68.0097 108.134 68.2433 107.755 68.342 107.307L71.5352 92.7477C76.3583 92.725 80.3454 88.1608 81.0146 82.25H86.6244C87.3838 82.25 87.9994 81.4673 87.9994 80.5V65.4336C87.9994 63.2495 86.9192 61.2722 85.3119 60.5117ZM61.8746 3.5V6.88187L57.3211 5.2625L52.3658 3.5H61.8746ZM84.9305 18.7151L76.6567 56.4167L72.7274 54.5577L72.569 54.4824L63.3771 43.521C63.1939 43.3022 62.9676 43.1536 62.7225 43.0869L47.0753 38.8879C46.9155 38.8435 46.7504 38.8401 46.5899 38.8691C46.5897 38.8691 46.5901 38.8691 46.5899 38.8691L46.3619 38.9122L35.8022 40.9061L43.8809 4.11694L84.9305 18.7151ZM61.8746 108.5H2.74998V3.5H41.1611L32.8219 41.4719L31.9591 41.6398L31.8081 41.6685C31.807 41.6687 31.8061 41.6696 31.805 41.6698L31.8034 41.6702C31.7389 41.6826 31.6841 41.7281 31.6224 41.7516C31.5179 41.7916 31.4094 41.8197 31.3158 41.8893C31.1664 42.0005 31.0335 42.1475 30.9252 42.3247L27.9141 47.25H20.6249C20.0925 47.25 19.6077 47.6414 19.3808 48.2549C19.1539 48.8684 19.2257 49.593 19.5654 50.116L22.4685 54.5798C20.5973 55.4019 19.2499 57.6663 19.2499 60.322V77.6118C19.2499 80.1702 20.8847 82.25 22.8935 82.25H23.8723L22.3325 89.25H9.62494C8.8656 89.25 8.24995 90.0327 8.24995 91C8.24995 91.9673 8.8656 92.75 9.62494 92.75H22.6143C22.7202 92.8325 22.8237 92.9208 22.9492 92.9653L37.0906 98H9.62494C8.8656 98 8.24995 98.7827 8.24995 99.75C8.24995 100.717 8.8656 101.5 9.62494 101.5H38.4997C39.2591 101.5 39.8747 100.717 39.8747 99.75C39.8747 99.4462 39.7979 99.1747 39.6911 98.9258L61.8746 106.824V108.5ZM34.3748 71.75C38.1654 71.75 41.2497 75.6755 41.2497 80.5C41.2497 81.0531 41.1989 81.5902 41.1214 82.1151C41.1113 82.1837 41.1061 82.2556 41.0946 82.3236C41.0243 82.7429 40.9138 83.1414 40.7981 83.5364C40.7307 83.7681 40.656 83.9974 40.5721 84.2222C40.4379 84.5823 40.2957 84.9367 40.1256 85.2679C40.1001 85.3226 40.0729 85.3788 40.0438 85.4352C39.8208 85.8487 39.5678 86.2332 39.2938 86.5916C39.2523 86.645 39.2102 86.7014 39.1684 86.7527C38.8751 87.1171 38.5609 87.4551 38.2205 87.7487C38.2163 87.7521 38.2112 87.7561 38.207 87.7597C37.855 88.0616 37.4784 88.3201 37.0844 88.5362C37.0574 88.5512 37.0239 88.567 36.9947 88.5824C36.6214 88.7793 36.2311 88.9332 35.8283 89.0443C35.784 89.0568 35.7329 89.0694 35.6788 89.0822C35.2557 89.1862 34.8213 89.25 34.3748 89.25C30.5841 89.25 27.4998 85.3245 27.4998 80.5C27.4998 75.6755 30.5841 71.75 34.3748 71.75ZM66.0633 104.679L63.635 103.814C63.6297 103.812 63.6256 103.807 63.6202 103.805L25.0083 90.0635L25.8583 86.2029C25.8654 86.22 25.875 86.2349 25.8821 86.252C26.0638 86.6848 26.2674 87.0996 26.4872 87.4995C26.5415 87.5983 26.6006 87.6915 26.6571 87.7882C26.8381 88.0979 27.0298 88.3957 27.2324 88.6821C27.3008 88.7786 27.3674 88.8764 27.4381 88.9702C27.7039 89.3225 27.9814 89.6602 28.2783 89.9703C28.3011 89.9942 28.3263 90.0142 28.3493 90.0379C28.6258 90.3214 28.9169 90.5812 29.2172 90.8251C29.3084 90.8993 29.4009 90.9695 29.4942 91.0397C29.7641 91.2429 30.0418 91.4293 30.3275 91.5988C30.4002 91.6419 30.4698 91.6905 30.5435 91.7314C30.8975 91.9279 31.2625 92.0963 31.637 92.2381C31.7243 92.2712 31.8141 92.2951 31.9024 92.3251C32.2039 92.4273 32.5103 92.5108 32.8225 92.5757C32.934 92.5989 33.0448 92.6227 33.1575 92.6409C33.5571 92.7056 33.9615 92.75 34.3748 92.75C34.6771 92.75 34.9916 92.73 35.2065 92.6964C35.2988 92.6862 35.391 92.6758 35.4826 92.6623C35.7182 92.6319 35.9487 92.5889 36.1282 92.5365C36.2817 92.5004 36.4328 92.4569 36.5837 92.4115C36.619 92.4007 36.6534 92.3937 36.689 92.3826C36.7985 92.3569 36.922 92.3176 37.0791 92.2629C37.1248 92.2493 37.1697 92.2322 37.2141 92.2117L37.349 92.1519C37.5195 92.075 37.6961 91.9963 37.8136 91.9331C37.8373 91.9226 37.8597 91.9062 37.8831 91.8952C38.0536 91.8097 38.221 91.7178 38.3867 91.6205C38.4335 91.5926 38.4807 91.5722 38.5279 91.5435C38.536 91.5383 38.6528 91.4683 38.6609 91.4631C38.7346 91.4162 38.7998 91.3707 38.8692 91.3243C38.9137 91.2943 38.9588 91.266 39.0029 91.2351C39.1352 91.1428 39.2541 91.0545 39.3396 90.9778C39.4806 90.8787 39.6116 90.7727 39.7472 90.6599L39.8875 90.5437C40.0594 90.3967 40.2319 90.2275 40.3326 90.1079C40.3463 90.0943 40.3601 90.0769 40.3738 90.0632C40.4952 89.9396 40.6112 89.8091 40.7276 89.6782C40.8335 89.56 40.9412 89.4383 41.0486 89.3069C41.1437 89.1902 41.2355 89.0702 41.3269 88.9486C41.4054 88.8455 41.4807 88.758 41.5612 88.6467C41.7069 88.4399 41.8499 88.228 41.907 88.1135C41.934 88.0722 41.9522 88.024 41.9786 87.982C42.3056 87.4449 42.6041 86.8786 42.8584 86.2759C42.8637 86.2632 42.8704 86.2515 42.8758 86.2388C42.9724 86.0077 43.0526 85.7765 43.1353 85.5452C43.1711 85.4449 43.213 85.3491 43.2468 85.2475C43.3596 84.9074 43.4584 84.567 43.5425 84.2256C43.5456 84.2141 43.5481 84.2025 43.5511 84.191C43.5592 84.1586 43.5675 84.1263 43.5753 84.0938C43.5856 84.0522 43.5965 84.0108 43.6063 83.9692L48.1254 85.5808C48.1333 85.5836 48.1417 85.5805 48.1498 85.5832L58.2807 89.1868C58.4042 89.2312 58.5291 89.2517 58.6513 89.2517C59.2528 89.2517 59.8054 88.7458 59.9746 87.9734C60.1794 87.042 59.7524 86.0764 59.0205 85.8167L50.1901 82.6756L50.2832 82.25H61.9726C61.9814 82.328 62.002 82.4008 62.0119 82.4784C62.0691 82.924 62.1434 83.3616 62.2375 83.7898C62.2565 83.8767 62.27 83.966 62.2906 84.0521C62.4071 84.54 62.55 85.0121 62.7114 85.4723C62.7581 85.6058 62.81 85.7345 62.8603 85.8655C62.9959 86.2174 63.1438 86.5592 63.3043 86.8914C63.362 87.011 63.4152 87.1335 63.4759 87.2505C63.6838 87.6494 63.9101 88.0305 64.1522 88.395C64.2359 88.5211 64.3256 88.639 64.4133 88.7608C64.6038 89.0254 64.8028 89.2785 65.0107 89.5209C65.1055 89.6312 65.1968 89.7444 65.295 89.85C65.5837 90.1608 65.8861 90.4506 66.2023 90.7171C66.2881 90.789 66.378 90.8524 66.4657 90.921C66.7449 91.1402 67.033 91.3409 67.3301 91.5238C67.4124 91.5742 67.4926 91.6275 67.5763 91.6749C67.9632 91.8959 68.3622 92.0869 68.7741 92.2421C68.7793 92.244 68.784 92.2473 68.7892 92.2493L66.0633 104.679ZM71.4995 89.25C71.1408 89.25 70.7958 89.183 70.4518 89.1152C70.2048 89.0676 69.9648 88.9981 69.7278 88.9184C69.5294 88.8505 69.3333 88.776 69.1423 88.6865C68.9424 88.5939 68.7475 88.4899 68.557 88.3751C68.3455 88.2465 68.1408 88.1041 67.9418 87.9496C67.7849 87.8283 67.63 87.7043 67.4819 87.568C67.2749 87.377 67.0807 87.1669 66.892 86.9483C66.769 86.8059 66.6443 86.6664 66.5297 86.5133C66.3464 86.268 66.1822 86.0013 66.022 85.7305C65.9258 85.5676 65.8238 85.4109 65.7366 85.2395C65.5887 84.9492 65.4668 84.6379 65.3463 84.3253C65.277 84.1454 65.1971 83.9732 65.1374 83.7867C65.0272 83.4426 64.9507 83.0788 64.8753 82.7145C64.8393 82.54 64.7869 82.374 64.7593 82.1956C64.6741 81.6463 64.6246 81.0806 64.6246 80.5C64.6246 75.6755 67.7089 71.75 71.4995 71.75C75.2902 71.75 78.3745 75.6755 78.3745 80.5C78.3745 85.3245 75.2902 89.25 71.4995 89.25ZM85.2494 78.75H81.0264C81.0112 78.6153 80.9854 78.4852 80.9668 78.352C80.9435 78.1856 80.9209 78.0195 80.8923 77.8556C80.8537 77.6335 80.8072 77.4157 80.7592 77.1983C80.7252 77.044 80.6937 76.8888 80.6551 76.737C80.5974 76.5102 80.5302 76.2893 80.4625 76.0684C80.421 75.9332 80.3839 75.7955 80.3389 75.6626C80.2539 75.4119 80.1578 75.1691 80.0602 74.9274C80.0217 74.8318 79.9884 74.7324 79.9479 74.6383C79.8053 74.3069 79.6516 73.9844 79.4864 73.6724C79.4497 73.6031 79.4075 73.5394 79.3697 73.4711C79.2368 73.2307 79.101 72.9935 78.9553 72.7663C78.8878 72.6611 78.8142 72.5633 78.7442 72.461C78.6198 72.2798 78.4953 72.0991 78.363 71.9274C78.2794 71.819 78.1909 71.7175 78.1043 71.6132C77.9762 71.4589 77.8476 71.3058 77.7131 71.1605C77.6178 71.0576 77.5191 70.9608 77.4206 70.8626C77.2856 70.7279 77.1495 70.5959 77.0088 70.4704C76.9045 70.3773 76.7981 70.2888 76.6907 70.2008C76.5477 70.0835 76.4026 69.9707 76.2545 69.8631C76.1427 69.7818 76.0301 69.7034 75.9155 69.6277C75.7637 69.5273 75.6092 69.4337 75.4528 69.3435C75.336 69.2761 75.2192 69.2093 75.1 69.1478C74.9378 69.0641 74.7723 68.9897 74.6059 68.9171C74.4861 68.8649 74.3673 68.8109 74.2454 68.7645C74.07 68.6979 73.891 68.6433 73.7115 68.5893C73.5938 68.554 73.4778 68.5138 73.3586 68.484C73.1574 68.4336 72.9524 68.399 72.747 68.3649C72.6449 68.3479 72.5449 68.3236 72.4418 68.3108C72.1316 68.2722 71.8176 68.25 71.4995 68.25C66.6589 68.25 62.642 72.8215 61.9726 78.75H49.2385H43.9017C43.8846 78.5983 43.8559 78.4517 43.8345 78.3018C43.8135 78.1552 43.7938 78.0083 43.7688 77.8636C43.7265 77.6188 43.6749 77.3789 43.6212 77.1398C43.5914 77.007 43.5647 76.8727 43.5314 76.7417C43.4666 76.4867 43.3914 76.2381 43.314 75.9905C43.2803 75.8826 43.2511 75.7723 43.2151 75.666C43.1124 75.363 42.9983 75.0681 42.8775 74.7782C42.8587 74.7331 42.8433 74.6855 42.824 74.6406C42.679 74.3033 42.522 73.9758 42.3536 73.6586C42.3249 73.6045 42.2918 73.5547 42.2624 73.5011C42.1223 73.246 41.9774 72.9955 41.8228 72.7551C41.7606 72.6582 41.6927 72.5681 41.6281 72.4738C41.4987 72.2845 41.3686 72.0966 41.2303 71.9178C41.151 71.815 41.067 71.7187 40.9848 71.6196C40.8526 71.4601 40.7196 71.3024 40.5804 71.1526C40.4885 71.0536 40.3933 70.9599 40.2984 70.8653C40.1603 70.7274 40.0208 70.5925 39.8768 70.4642C39.7751 70.3736 39.6714 70.2872 39.5669 70.2016C39.4213 70.0822 39.2736 69.9677 39.1228 69.8583C39.0132 69.7787 38.9028 69.7018 38.7906 69.6275C38.6372 69.5262 38.4811 69.4318 38.323 69.3408C38.2073 69.2742 38.0919 69.2079 37.9738 69.147C37.8107 69.0629 37.6445 68.9882 37.4771 68.9154C37.3582 68.8636 37.2404 68.8099 37.1195 68.7641C36.9431 68.6971 36.7631 68.6424 36.5826 68.5882C36.4661 68.5531 36.3514 68.5134 36.2333 68.4839C36.0308 68.4332 35.8244 68.3983 35.6176 68.3641C35.517 68.3474 35.4184 68.3233 35.3168 68.3107C35.0066 68.2721 34.6928 68.25 34.3748 68.25C29.5341 68.25 25.5172 72.8215 24.8479 78.75H22.8935C22.4007 78.75 21.9999 78.239 21.9999 77.6118V60.322C21.9999 58.9036 22.9062 57.75 24.0207 57.75H25.1762C25.7086 57.75 26.1933 57.3586 26.4202 56.7451C26.6472 56.1316 26.5753 55.407 26.2356 54.884L23.5474 50.75H28.5861C29.0104 50.75 29.4106 50.5005 29.6711 50.075L32.7577 45.0265L46.7493 42.3778L61.7799 46.4109L70.8892 57.2766C71.0229 57.4355 71.1793 57.5586 71.3505 57.6406L71.9674 57.9325L77.0962 60.3682C77.1081 60.3739 77.1209 60.3714 77.1329 60.3767L84.3531 63.793C84.8889 64.0459 85.2494 64.7056 85.2494 65.4336V78.75Z" fill="#1BAC4B"/>
<path d="M9.62493 24.5H17.8749C18.6342 24.5 19.2499 23.7173 19.2499 22.75V12.25C19.2499 11.2827 18.6342 10.5 17.8749 10.5H9.62493C8.8656 10.5 8.24994 11.2827 8.24994 12.25V22.75C8.24994 23.7173 8.8656 24.5 9.62493 24.5ZM10.9999 14H16.4999V21H10.9999V14Z" fill="#1BAC4B"/>
<path d="M9.62493 35H28.8748C29.6341 35 30.2498 34.2173 30.2498 33.25C30.2498 32.2827 29.6341 31.5 28.8748 31.5H9.62493C8.8656 31.5 8.24994 32.2827 8.24994 33.25C8.24994 34.2173 8.8656 35 9.62493 35Z" fill="#1BAC4B"/>
<path d="M9.62493 43.75H26.1248C26.8842 43.75 27.4998 42.9673 27.4998 42C27.4998 41.0327 26.8842 40.25 26.1248 40.25H9.62493C8.8656 40.25 8.24994 41.0327 8.24994 42C8.24994 42.9673 8.8656 43.75 9.62493 43.75Z" fill="#1BAC4B"/>
<path d="M9.62493 63H15.1249C15.8842 63 16.4999 62.2173 16.4999 61.25C16.4999 60.2827 15.8842 59.5 15.1249 59.5H9.62493C8.8656 59.5 8.24994 60.2827 8.24994 61.25C8.24994 62.2173 8.8656 63 9.62493 63Z" fill="#1BAC4B"/>
<path d="M9.62493 73.5H15.1249C15.8842 73.5 16.4999 72.7173 16.4999 71.75C16.4999 70.7827 15.8842 70 15.1249 70H9.62493C8.8656 70 8.24994 70.7827 8.24994 71.75C8.24994 72.7173 8.8656 73.5 9.62493 73.5Z" fill="#1BAC4B"/>
<path d="M9.62493 80.5H15.1249C15.8842 80.5 16.4999 79.7173 16.4999 78.75C16.4999 77.7827 15.8842 77 15.1249 77H9.62493C8.8656 77 8.24994 77.7827 8.24994 78.75C8.24994 79.7173 8.8656 80.5 9.62493 80.5Z" fill="#1BAC4B"/>
<path d="M9.62493 54.25H16.4999C17.2592 54.25 17.8749 53.4673 17.8749 52.5C17.8749 51.5327 17.2592 50.75 16.4999 50.75H9.62493C8.8656 50.75 8.24994 51.5327 8.24994 52.5C8.24994 53.4673 8.8656 54.25 9.62493 54.25Z" fill="#1BAC4B"/>
<path d="M45.027 28.1452L50.3242 30.0285C50.4477 30.073 50.5726 30.0935 50.6948 30.0935C51.2963 30.0935 51.8489 29.5876 52.0181 28.8152L53.4978 22.0749C53.7026 21.1435 53.2756 20.1779 52.5438 19.9182L47.2466 18.0332C46.8954 17.9084 46.5201 17.9648 46.2019 18.1938C45.8843 18.4211 45.6507 18.8005 45.5527 19.2466L44.0729 25.9885C43.8682 26.9199 44.2958 27.8855 45.027 28.1452ZM47.8307 21.875L50.4799 22.8166L49.7401 26.1867L47.0908 25.2451L47.8307 21.875Z" fill="#1BAC4B"/>
<path d="M55.9913 30.2267L73.2068 36.35C73.3304 36.3945 73.4553 36.415 73.5775 36.415C74.179 36.415 74.7316 35.9091 74.9007 35.1366C75.1055 34.2053 74.6785 33.2397 73.9467 32.9799L56.7311 26.8566C56 26.5934 55.2407 27.1403 55.0372 28.07C54.8325 29.0014 55.2595 29.967 55.9913 30.2267Z" fill="#1BAC4B"/>
<path d="M60.9058 48.8274C60.7218 48.6018 60.4929 48.4446 60.2438 48.3763L47.027 44.6951L46.7658 44.6267C46.6053 44.584 46.4408 44.5789 46.279 44.6114L34.2338 46.9732C33.8793 47.0432 33.5604 47.2859 33.3449 47.6499L29.7013 53.8091C29.3971 54.3235 29.3394 55.0088 29.5509 55.5933L30.5962 58.4815C30.8205 59.1018 31.3086 59.5 31.845 59.5H66.1781C66.7387 59.5 67.243 59.0677 67.4531 58.4063C67.6632 57.7449 67.537 56.9878 67.1342 56.4922L60.9058 48.8274ZM32.7252 56L32.3922 55.0789L35.2053 50.3245L45.3747 48.3298V56H32.7252ZM48.1247 56V48.5836L59.2743 51.6883L62.7783 56H48.1247Z" fill="#1BAC4B"/>
<path d="M52.2497 63H49.4997C48.7404 63 48.1247 63.7827 48.1247 64.75C48.1247 65.7173 48.7404 66.5 49.4997 66.5H52.2497C53.009 66.5 53.6247 65.7173 53.6247 64.75C53.6247 63.7827 53.009 63 52.2497 63Z" fill="#1BAC4B"/>
</svg>
