<svg width="32" height="33" viewBox="0 0 32 33" fill="none" xmlns="http://www.w3.org/2000/svg">
<g clip-path="url(#clip0_5_2235)">
<path d="M14.6675 32.3253V27.5253C7.98748 27.1787 2.66748 21.632 2.66748 14.872C2.66748 7.88532 8.34748 2.20532 15.3341 2.20532C22.3208 2.20532 28.0008 7.88532 28.0008 14.872C28.0008 21.472 23.4141 28.112 16.5741 31.4053L14.6675 32.3253ZM15.3341 4.87199C9.81415 4.87199 5.33415 9.35199 5.33415 14.872C5.33415 20.392 9.81415 24.872 15.3341 24.872H17.3341V27.9387C22.1875 24.872 25.3341 19.832 25.3341 14.872C25.3341 9.35199 20.8541 4.87199 15.3341 4.87199ZM14.0008 20.2053H16.6675V22.872H14.0008V20.2053ZM16.6675 18.2053H14.0008C14.0008 13.872 18.0008 14.2053 18.0008 11.5387C18.0008 10.072 16.8008 8.87199 15.3341 8.87199C13.8675 8.87199 12.6675 10.072 12.6675 11.5387H10.0008C10.0008 8.59199 12.3875 6.20532 15.3341 6.20532C18.2808 6.20532 20.6675 8.59199 20.6675 11.5387C20.6675 14.872 16.6675 15.2053 16.6675 18.2053Z" fill="black"/>
</g>
<defs>
<clipPath id="clip0_5_2235">
<rect width="32" height="32" fill="white" transform="translate(0.000488281 0.87207)"/>
</clipPath>
</defs>
</svg>
