<svg width="32" height="33" viewBox="0 0 32 33" fill="none" xmlns="http://www.w3.org/2000/svg">
<path d="M16.0003 29.8334C14.1559 29.8334 12.4225 29.4832 10.8003 28.7827C9.1781 28.0823 7.76698 27.1267 6.56698 25.9161C5.36698 24.7054 4.41721 23.289 3.71765 21.6667C3.0181 20.0445 2.66787 18.3223 2.66698 16.5001C2.66698 13.0112 3.82254 10.0112 6.13365 7.50006C8.44476 4.98895 11.2892 3.56673 14.667 3.2334V7.2334C12.3781 7.54451 10.4723 8.57251 8.94965 10.3174C7.42698 12.0623 6.6661 14.1232 6.66698 16.5001C6.66698 19.0778 7.5781 21.2778 9.40032 23.1001C11.2225 24.9223 13.4225 25.8334 16.0003 25.8334C17.467 25.8334 18.8394 25.5223 20.1177 24.9001C21.3959 24.2778 22.4679 23.4334 23.3337 22.3667L26.8003 24.3667C25.6003 26.0334 24.0559 27.3614 22.167 28.3507C20.2781 29.3401 18.2225 29.8343 16.0003 29.8334ZM28.2003 21.9001L24.7336 19.9001C24.9336 19.3667 25.0834 18.817 25.183 18.2507C25.2825 17.6845 25.3328 17.101 25.3337 16.5001C25.3337 14.1223 24.5723 12.0614 23.0497 10.3174C21.527 8.5734 19.6217 7.5454 17.3337 7.2334V3.2334C20.7114 3.56673 23.5559 4.98895 25.867 7.50006C28.1781 10.0112 29.3336 13.0112 29.3336 16.5001C29.3336 17.4778 29.2448 18.4223 29.067 19.3334C28.8892 20.2445 28.6003 21.1001 28.2003 21.9001Z" fill="black"/>
</svg>
