<svg width="20" height="20" viewBox="0 0 20 20" fill="none" xmlns="http://www.w3.org/2000/svg">
<path d="M0.42666 9.91302C0.426191 11.599 0.868691 13.2452 1.7101 14.6962L0.346191 19.6538L5.44244 18.3235C6.852 19.0875 8.4313 19.4878 10.0362 19.4879H10.0404C15.3385 19.4879 19.6512 15.1959 19.6535 9.92056C19.6545 7.36428 18.6554 4.96052 16.8403 3.15206C15.0254 1.34375 12.6117 0.347358 10.04 0.346191C4.74135 0.346191 0.428926 4.6379 0.426738 9.91302" fill="url(#paint0_linear_5_2195)"/>
<path d="M0.0835938 9.90997C0.0830469 11.6566 0.541406 13.3617 1.41281 14.8646L0 20L5.27898 18.622C6.73352 19.4115 8.37117 19.8278 10.0376 19.8284H10.0419C15.53 19.8284 19.9977 15.3821 20 9.91791C20.0009 7.26977 18.9659 4.7796 17.0859 2.90635C15.2057 1.03334 12.7057 0.00108887 10.0419 0C4.55281 0 0.0857813 4.44571 0.0835938 9.90997ZM3.22742 14.6058L3.03031 14.2943C2.20172 12.9827 1.76437 11.467 1.765 9.9106C1.76672 5.36884 5.47953 1.67375 10.045 1.67375C12.2559 1.67468 14.3337 2.53271 15.8966 4.08949C17.4593 5.64642 18.3192 7.71605 18.3187 9.91728C18.3166 14.459 14.6037 18.1546 10.0419 18.1546H10.0386C8.5532 18.1538 7.09641 17.7567 5.82594 17.0062L5.52359 16.8277L2.39094 17.6454L3.22742 14.6058Z" fill="url(#paint1_linear_5_2195)"/>
<path d="M7.55303 5.76702C7.36662 5.35457 7.17045 5.34625 6.99318 5.33902C6.84803 5.33279 6.68209 5.33326 6.51631 5.33326C6.35037 5.33326 6.08076 5.3954 5.85287 5.64312C5.62475 5.89107 4.98193 6.49026 4.98193 7.70894C4.98193 8.9277 5.87357 10.1055 5.99787 10.2709C6.12232 10.436 7.7192 13.017 10.2483 14.0099C12.3501 14.835 12.7779 14.6709 13.234 14.6295C13.6903 14.5883 14.7062 14.0305 14.9135 13.452C15.1209 12.8737 15.1209 12.3779 15.0587 12.2743C14.9965 12.1711 14.8306 12.1092 14.5818 11.9853C14.3329 11.8614 13.1096 11.2622 12.8815 11.1795C12.6534 11.0969 12.4876 11.0557 12.3216 11.3037C12.1557 11.5513 11.6792 12.1092 11.534 12.2743C11.3889 12.4399 11.2437 12.4605 10.9949 12.3366C10.7459 12.2124 9.94459 11.9511 8.99389 11.1073C8.2542 10.4507 7.75482 9.6399 7.60967 9.39187C7.46451 9.14423 7.59412 9.00999 7.71889 8.88656C7.83068 8.77557 7.96779 8.59731 8.09232 8.45272C8.21639 8.30806 8.25779 8.20485 8.34076 8.03965C8.42381 7.8743 8.38225 7.72963 8.32014 7.60573C8.25779 7.48184 7.77428 6.25678 7.55303 5.76702Z" fill="white"/>
<defs>
<linearGradient id="paint0_linear_5_2195" x1="965.71" y1="1931.11" x2="965.71" y2="0.346191" gradientUnits="userSpaceOnUse">
<stop stop-color="#1FAF38"/>
<stop offset="1" stop-color="#60D669"/>
</linearGradient>
<linearGradient id="paint1_linear_5_2195" x1="1000" y1="2000" x2="1000" y2="0" gradientUnits="userSpaceOnUse">
<stop stop-color="#F9F9F9"/>
<stop offset="1" stop-color="white"/>
</linearGradient>
</defs>
</svg>
